<svg xmlns="http://www.w3.org/2000/svg" width="53" height="51.676" viewBox="0 0 53 51.676">
  <path id="Icon_awesome-github" data-name="Icon awesome-github" d="M17.727,42.172c0,.214-.246.385-.556.385-.353.032-.6-.139-.6-.385,0-.214.246-.385.556-.385C17.449,41.755,17.727,41.926,17.727,42.172ZM14.4,41.691c-.075.214.139.459.459.524A.5.5,0,0,0,15.526,42c.064-.214-.139-.459-.459-.556A.548.548,0,0,0,14.4,41.691Zm4.723-.182c-.31.075-.524.278-.492.524.032.214.31.353.63.278s.524-.278.492-.492S19.437,41.477,19.127,41.509ZM26.158.563C11.337.563,0,11.814,0,26.635a26.79,26.79,0,0,0,18.112,25.56c1.368.246,1.849-.6,1.849-1.293,0-.662-.032-4.317-.032-6.561,0,0-7.48,1.6-9.051-3.184,0,0-1.218-3.109-2.971-3.911,0,0-2.447-1.678.171-1.646A5.64,5.64,0,0,1,12.2,38.357c2.34,4.125,6.262,2.939,7.79,2.233a5.939,5.939,0,0,1,1.71-3.6c-5.973-.662-12-1.528-12-11.807a8.1,8.1,0,0,1,2.522-6.294,10.1,10.1,0,0,1,.278-7.255c2.233-.695,7.373,2.885,7.373,2.885a25.243,25.243,0,0,1,13.421,0s5.14-3.59,7.373-2.885a10.091,10.091,0,0,1,.278,7.255c1.71,1.891,2.757,3.366,2.757,6.294,0,10.311-6.294,11.134-12.267,11.807.983.844,1.817,2.447,1.817,4.958,0,3.6-.032,8.057-.032,8.933,0,.695.492,1.539,1.849,1.293A26.543,26.543,0,0,0,53,26.635C53,11.814,40.979.563,26.158.563ZM10.386,37.417c-.139.107-.107.353.075.556.171.171.417.246.556.107.139-.107.107-.353-.075-.556C10.771,37.353,10.525,37.278,10.386,37.417Zm-1.154-.866c-.075.139.032.31.246.417a.318.318,0,0,0,.459-.075c.075-.139-.032-.31-.246-.417C9.478,36.412,9.307,36.444,9.232,36.551Zm3.462,3.8c-.171.139-.107.459.139.662.246.246.556.278.695.107.139-.139.075-.459-.139-.663C13.154,40.216,12.833,40.184,12.694,40.355Zm-1.218-1.571c-.171.107-.171.385,0,.63s.459.353.6.246a.487.487,0,0,0,0-.663C11.925,38.752,11.647,38.646,11.476,38.784Z" transform="translate(0 -0.563)" fill="#1989ec"/>
</svg>
